<svg xmlns="http://www.w3.org/2000/svg" width="18" height="23" fill="none" viewBox="0 0 18 23"><g clip-path="url(#a)"><path fill="#3ea1d1" d="M9.004 6.634c-2.556 0-4.617 2.224-4.617 4.982s2.061 4.982 4.617 4.982 4.616-2.225 4.616-4.982-2.06-4.982-4.616-4.982m0 8.22c-1.652 0-3.002-1.452-3.002-3.238s1.346-3.24 3.002-3.24 3.001 1.453 3.001 3.24c0 1.786-1.35 3.239-3.001 3.239m5.882-8.424c0 .646-.482 1.162-1.077 1.162-.598 0-1.077-.52-1.077-1.162s.482-1.162 1.077-1.162 1.077.52 1.077 1.162m3.058 1.18c-.069-1.557-.398-2.936-1.455-4.072-1.053-1.136-2.33-1.492-3.773-1.57-1.486-.09-5.942-.09-7.429 0-1.438.074-2.716.43-3.772 1.565C.458 4.67.132 6.048.06 7.605c-.084 1.604-.084 6.413 0 8.017.068 1.557.398 2.936 1.455 4.072s2.33 1.491 3.772 1.57c1.487.09 5.943.09 7.43 0 1.442-.075 2.72-.43 3.772-1.57 1.053-1.136 1.382-2.515 1.454-4.072.085-1.604.085-6.408 0-8.013m-1.921 9.733c-.313.85-.92 1.505-1.712 1.848-1.185.507-3.997.39-5.307.39s-4.127.113-5.308-.39c-.787-.339-1.394-.993-1.711-1.848-.47-1.279-.362-4.314-.362-5.727s-.104-4.453.362-5.728c.313-.85.92-1.505 1.711-1.847 1.185-.508 3.998-.39 5.308-.39s4.126-.113 5.307.39c.788.338 1.395.993 1.712 1.847.47 1.279.362 4.314.362 5.728s.108 4.453-.362 5.727"/></g><defs><clipPath id="a"><path fill="#fff" d="M0 .52h18v22.2H0z"/></clipPath></defs></svg>