<svg xmlns="http://www.w3.org/2000/svg" width="18" height="20" fill="none" viewBox="0 0 18 20"><g clip-path="url(#a)"><path fill="#3ea1d1" d="M10.934 7.4v3.049c0 .079-.057.139-.13.139h-.457a.13.13 0 0 1-.106-.057L8.93 8.645v1.808c0 .078-.057.138-.13.138h-.457c-.074 0-.13-.06-.13-.138v-3.05c0-.078.056-.138.13-.138h.453a.13.13 0 0 1 .106.06l1.31 1.886V7.404c0-.079.057-.139.131-.139h.457a.13.13 0 0 1 .134.131zm-3.295-.139h-.457c-.073 0-.13.06-.13.139v3.049c0 .079.057.139.13.139h.457c.074 0 .13-.06.13-.14V7.4c0-.071-.056-.139-.13-.139M6.536 9.815H5.284V7.4c0-.079-.056-.139-.13-.139h-.457c-.074 0-.13.06-.13.139v3.049q-.001.055.035.094a.13.13 0 0 0 .088.037h1.835c.074 0 .13-.06.13-.139v-.487c0-.071-.056-.139-.123-.139zm6.81-2.554h-1.84c-.066 0-.13.06-.13.139v3.049c0 .071.057.139.13.139h1.836c.074 0 .13-.06.13-.14v-.49c0-.08-.056-.14-.13-.14h-1.248v-.51h1.248c.074 0 .13-.06.13-.138v-.491c0-.079-.056-.139-.13-.139h-1.248v-.514h1.248c.074 0 .13-.06.13-.138V7.4c-.004-.071-.06-.139-.13-.139zM18 3.523v12.225c-.003 1.92-1.48 3.476-3.284 3.472H3.256c-1.8-.004-3.26-1.582-3.256-3.502V3.492C.004 1.573 1.484.016 3.284.02h11.46c1.8.004 3.26 1.579 3.256 3.503m-2.475 5.253c0-3.127-2.943-5.673-6.553-5.673S2.419 5.649 2.419 8.776c0 2.802 2.33 5.153 5.48 5.599.767.176.68.476.507 1.579-.028.176-.134.69.566.378.7-.31 3.772-2.37 5.15-4.057.95-1.114 1.403-2.242 1.403-3.491z"/></g><defs><clipPath id="a"><path fill="#fff" d="M0 .02h18v19.2H0z"/></clipPath></defs></svg>